# xmcd
#
# Track frame offsets:
#	150
#	31916
#	65254
#	91653
#	149313
#	186911
#	214653
#	246902
#	279665
#
# Disc length: 4073 seconds
#
# Revision: 0
# Processed by: cddbd v1.5.1PL0 Copyright (c) Steve Scherf et al.
# Submitted via: audiograbber 1.83.01
#
DISCID=7d0fe709
DTITLE=Speedo Harmonica Jones - Remembering Bloomfield
DYEAR=2005
DGENRE=Blues
TTITLE0=Comin' Home Baby
TTITLE1=Flat Broke Blues
TTITLE2=Walking Blues
TTITLE3=Juice Head Baby
TTITLE4=Wine
TTITLE5=I'm Glad I'm Jewish
TTITLE6=Long Distance Operator
TTITLE7=Georgia Swing
TTITLE8=Thank You Mr. PooBah
EXTD=
EXTT0=
EXTT1=
EXTT2=
EXTT3=
EXTT4=
EXTT5=
EXTT6=
EXTT7=
EXTT8=
PLAYORDER=
